<svg width="45" height="48" viewBox="0 0 45 48" fill="none" xmlns="http://www.w3.org/2000/svg">
<g clip-path="url(#clip0)">
<path fill-rule="evenodd" clip-rule="evenodd" d="M2.77814 8.35682C2.77814 14.5213 8.15461 13.4037 10.0462 13.412C14.6762 13.4312 12.6384 10.8838 12.2036 10.8838L7.67748 11.0918C4.07545 11.001 4.75068 6.60799 7.09768 6.60799H41.0705C41.9608 6.60799 41.8557 7.46986 41.8557 7.96832C41.8557 9.19477 37.0747 9.135 36.1591 9.13261L18.2794 10.4834C17.4182 10.9018 17.2334 11.8138 17.8869 12.4498C18.1731 12.7295 18.4449 12.8335 19.0706 12.8466C19.7265 12.8598 19.9935 12.7163 20.4803 12.6613L26.1575 12.2549C26.666 12.2155 27.1987 12.2728 27.7073 12.2334C31.3927 11.9477 35.403 11.4672 39.3046 11.4672C39.9327 14.1364 40.5717 16.8666 41.0464 19.6542C42.1009 25.8534 42.6179 33.1105 41.4124 39.3993C41.201 40.5027 41.0717 40.2624 41.0717 41.7829C41.0717 42.0256 43.734 45.669 41.6612 45.669H5.52738C4.189 45.669 4.23369 44.8024 4.8135 44.0015C6.68095 41.4243 6.23885 42.7858 5.49235 37.7354C4.73256 32.5941 5.47181 26.432 6.22677 21.2907C6.41037 20.0356 6.70631 18.7231 6.70631 17.4906C6.54807 17.3854 4.58641 15.4525 4.1745 18.2891C3.2746 24.4728 2.24666 31.694 3.02939 38.0378C3.1526 39.0347 3.5645 40.5373 3.5645 41.5892C3.5645 42.2013 1.99299 42.432 1.99299 45.4754C-0.977292 45.5411 -0.0278633 48.0012 1.01095 48.0012H42.0526C43.4067 48.0012 44.9987 46.6612 44.9987 44.6972C44.9987 43.3106 43.6241 41.4781 43.6241 41.3932C43.6241 40.578 44.6061 36.4994 44.6061 32.8427C44.6061 27.295 44.582 25.4781 43.6265 19.8204C43.3777 18.3501 43.1143 16.8906 42.7906 15.3999C42.5394 14.2368 41.9608 12.323 41.8569 11.0775C43.7799 10.1642 44.4092 9.60956 44.4092 7.19133C44.4092 5.7294 42.8981 4.11804 40.6876 4.07262C39.5111 4.04871 38.2537 4.27344 37.4117 3.81681C32.9062 1.37348 29.5373 0 23.2017 0C15.5217 0 10.2008 3.82996 9.4024 4.02839C8.26091 4.31169 7.34168 3.88973 5.98277 4.33679C4.43783 4.84483 2.77814 6.42749 2.77814 8.35682Z" fill="#26472E"/>
<path d="M31.3939 21.8131C31.1499 21.8131 30.9132 21.6923 30.6692 21.4437C30.4324 21.2022 30.3394 20.9464 30.3744 20.6906C30.5109 19.6674 30.5822 19.1701 30.5822 19.1988C30.5822 17.9269 30.1365 17.2946 29.2462 17.2946C27.624 17.2946 25.1248 18.6728 21.7499 21.4377C18.3314 24.2588 16.6234 26.426 16.6234 27.9608C16.6234 28.6075 17.2914 29.1407 18.6334 29.5459C19.2797 29.7443 20.9889 30.0862 23.7599 30.562C26.1938 30.9815 27.9683 31.4573 29.0735 31.9832C30.825 32.8081 31.702 33.9795 31.702 35.494C31.702 37.2847 30.668 38.9618 28.6 40.5325C26.6613 42.01 24.7866 42.7499 22.9771 42.7499H22.0579C20.8947 42.7499 19.7894 42.3949 18.7542 41.6908C17.562 40.8947 16.9665 39.9073 16.9665 38.7275C16.9665 38.4143 17.0595 37.996 17.254 37.47C17.4835 36.8448 17.7202 36.5316 17.9654 36.5316C18.4607 36.5316 18.7047 36.7731 18.7047 37.2417C18.7047 37.4329 18.654 37.6828 18.5682 37.9804C18.4752 38.2793 18.4317 38.4562 18.4317 38.5064C18.4317 39.2164 18.7977 39.7926 19.5237 40.2397C20.1627 40.6305 20.9381 40.829 21.8429 40.829C23.6741 40.829 25.4183 40.2958 27.078 39.2236C28.8947 38.0438 29.8067 36.6512 29.8067 35.0386C29.8067 34.1791 29.0675 33.4966 27.5878 33.0137C26.8413 32.765 25.1828 32.4447 22.6256 32.0406C21.4334 31.8625 19.6747 31.4931 17.3482 30.9397C15.546 30.336 14.6412 29.4682 14.6412 28.3386C14.6412 25.5534 16.5365 22.6749 20.3354 19.7116C23.9036 16.9336 26.9778 15.5469 29.5627 15.5469C31.6814 15.5469 32.7371 16.8547 32.7371 19.4761C32.7371 19.8813 32.6151 20.3499 32.3711 20.8759C32.0982 21.5011 31.7744 21.8131 31.3939 21.8131Z" fill="#26472E"/>
</g>
<defs>
<clipPath id="clip0">
<rect width="45" height="48" fill="white"/>
</clipPath>
</defs>
</svg>
