<svg width="113" height="24" viewBox="0 0 113 24" fill="none" xmlns="http://www.w3.org/2000/svg">
<g clip-path="url(#clip0)">
<path fill-rule="evenodd" clip-rule="evenodd" d="M94.7032 18.1478L94.4445 17.9265C93.8175 17.3918 93.7072 16.4138 94.2787 15.7868L100.991 8.11428C101.527 7.48803 102.504 7.37703 103.131 7.94928L103.39 8.16978C104.017 8.70528 104.127 9.68253 103.555 10.3095L96.8422 17.982C96.3075 18.6083 95.367 18.6825 94.7032 18.147V18.1478Z" fill="url(#paint0_linear)"/>
<path opacity="0.4" fill-rule="evenodd" clip-rule="evenodd" d="M100.088 9.44267L99.9593 9.29492L98.9265 10.4754L99.0368 10.6044C100.807 12.3752 100.052 14.1639 99.6458 14.7909L99.7928 14.6252C100.033 14.3484 100.402 13.9247 100.789 13.4627C101.195 12.7622 101.767 11.1024 100.088 9.44267Z" fill="url(#paint1_linear)"/>
<path opacity="0.4" fill-rule="evenodd" clip-rule="evenodd" d="M102.302 11.748L102.578 11.4345C102.596 11.397 102.633 11.361 102.652 11.3235C102.356 11.6557 102.043 12.006 101.748 12.3562C101.969 12.1162 102.154 11.9137 102.302 11.748V11.748Z" fill="url(#paint2_radial)"/>
<path fill-rule="evenodd" clip-rule="evenodd" d="M103.592 8.35509L96.8798 0.682592C96.3435 0.0555923 95.3663 -0.0554076 94.7393 0.516842L94.4805 0.738092C93.8543 1.27284 93.744 2.25009 94.3163 2.87709L99.9773 9.29484L100.106 9.44259C101.785 11.1211 101.213 12.7808 100.789 13.4813C101.121 13.0943 101.453 12.7073 101.767 12.3563C102.062 12.0061 102.375 11.6558 102.671 11.3236C102.965 10.9921 103.242 10.6786 103.427 10.4761C104.072 9.84834 104.164 8.98134 103.592 8.35434V8.35509Z" fill="url(#paint3_linear)"/>
<path fill-rule="evenodd" clip-rule="evenodd" d="M103.223 18.1478L102.964 17.9265C102.337 17.3918 102.227 16.4138 102.799 15.7868L109.512 8.11428C110.047 7.48803 111.024 7.37703 111.651 7.94928L111.91 8.16978C112.537 8.70528 112.647 9.68253 112.075 10.3095L105.363 17.982C104.827 18.6083 103.887 18.6825 103.223 18.147V18.1478Z" fill="url(#paint4_linear)"/>
<path opacity="0.4" fill-rule="evenodd" clip-rule="evenodd" d="M108.682 9.36919L108.553 9.22144L107.52 10.4019L107.631 10.5309C109.401 12.3009 108.645 14.0904 108.239 14.7174L108.387 14.5517C108.627 14.2742 108.995 13.8504 109.383 13.3892C109.788 12.6887 110.36 11.0289 108.682 9.36919V9.36919Z" fill="url(#paint5_linear)"/>
<path opacity="0.4" fill-rule="evenodd" clip-rule="evenodd" d="M110.803 11.748L111.08 11.4345C111.098 11.397 111.135 11.361 111.154 11.3235C110.858 11.6557 110.545 12.006 110.25 12.3562C110.471 12.1162 110.674 11.9137 110.803 11.748V11.748Z" fill="url(#paint6_radial)"/>
<path fill-rule="evenodd" clip-rule="evenodd" d="M112.094 8.35509L105.381 0.682592C104.846 0.0555923 103.868 -0.0554076 103.241 0.516842L102.983 0.738092C102.356 1.27284 102.245 2.25009 102.817 2.87709L108.479 9.29484L108.608 9.44259C110.287 11.1211 109.714 12.7808 109.291 13.4813C109.623 13.0943 109.954 12.7073 110.268 12.3563C110.563 12.0061 110.877 11.6558 111.172 11.3236C111.467 10.9921 111.743 10.6786 111.928 10.4761C112.573 9.84834 112.666 8.98134 112.094 8.35434V8.35509Z" fill="url(#paint7_linear)"/>
<path fill-rule="evenodd" clip-rule="evenodd" d="M0.424549 18.0735C0.165799 17.8155 0.0187988 17.4285 0.0187988 16.9485V1.77079C0.0187988 1.27279 0.165799 0.885785 0.479299 0.571535C0.792799 0.258035 1.18055 0.111035 1.67855 0.111035C2.17655 0.111035 2.61905 0.258035 2.9138 0.571535C3.2273 0.885035 3.37505 1.27279 3.37505 1.77079V15.7688H10.623C11.6558 15.7688 12.1905 16.2293 12.1905 17.1338C12.1905 18.0368 11.6558 18.498 10.623 18.498H1.58555C1.0883 18.498 0.700549 18.3503 0.424549 18.0735V18.0735ZM14.8095 18.1845C14.496 17.871 14.3483 17.4645 14.3483 16.9485V1.75204C14.3483 1.25404 14.496 0.867035 14.8095 0.553535C15.123 0.240035 15.51 0.0922852 16.008 0.0922852C16.506 0.0922852 16.9485 0.240035 17.244 0.553535C17.5575 0.867035 17.7053 1.25404 17.7053 1.75204V16.9485C17.7053 17.4465 17.5575 17.871 17.244 18.1845C16.9305 18.498 16.524 18.6458 16.008 18.6458C15.528 18.6458 15.123 18.498 14.8095 18.1845Z" fill="#4B4C4B"/>
<path d="M36.5902 21.0247C36.7747 21.3382 36.8849 21.633 36.8849 21.9472C36.8849 22.3342 36.7379 22.6657 36.4244 22.9057C36.1109 23.1457 35.7419 23.2927 35.3362 23.2927C35.0227 23.2927 34.7272 23.2192 34.4512 23.0715C34.1924 22.9245 33.9524 22.7025 33.7687 22.4265L32.2559 19.9177C32.0159 19.5127 31.7024 19.2172 31.3154 19.0327C30.9284 18.8482 30.4304 18.738 29.8034 18.738C28.0139 18.738 26.4832 18.3502 25.1744 17.613C23.8649 16.8382 22.8689 15.75 22.1677 14.367C21.4672 12.9465 21.1169 11.2867 21.1169 9.40574C21.1169 7.50599 21.4859 5.86499 22.1677 4.44449C22.8689 3.04274 23.8829 1.97324 25.1744 1.19849C26.4832 0.424486 28.0139 0.0734863 29.8034 0.0734863C31.5554 0.0734863 33.1042 0.461236 34.3957 1.19849C35.7052 1.97324 36.7004 3.06149 37.4017 4.44449C38.1022 5.84699 38.4524 7.50599 38.4524 9.40574C38.4524 11.4532 38.0474 13.242 37.2172 14.6985C36.4057 16.1745 35.2252 17.244 33.6944 17.9265C34.4879 18.1845 35.1329 18.774 35.6677 19.6417L36.5902 21.0247V21.0247ZM33.6952 14.3302C34.6349 13.1677 35.1149 11.508 35.1149 9.36899C35.1149 7.19249 34.6349 5.56949 33.6944 4.40774C32.7539 3.24524 31.4632 2.69249 29.7667 2.69249C28.0694 2.69249 26.7599 3.26399 25.8194 4.40774C24.8789 5.57024 24.3997 7.19249 24.3997 9.36899C24.3997 11.5447 24.8797 13.1677 25.8194 14.3302C26.7599 15.492 28.0882 16.0635 29.7667 16.0635C31.4444 16.0635 32.7539 15.492 33.6944 14.3302H33.6952ZM42.5099 18.1845C42.1964 17.871 42.0494 17.4645 42.0494 16.9485V1.80749C42.0494 1.30949 42.1964 0.922486 42.4919 0.644986C42.7867 0.386986 43.1744 0.239986 43.6724 0.239986H50.0347C51.9899 0.239986 53.5019 0.719236 54.5902 1.71524C55.6777 2.67449 56.2312 4.05749 56.2312 5.80949C56.2312 7.56149 55.6784 8.94449 54.5902 9.92249C53.5027 10.9177 51.9899 11.3977 50.0347 11.3977H45.4057V16.9672C45.4057 17.502 45.2579 17.9077 44.9444 18.2025C44.6309 18.5167 44.2252 18.6637 43.7092 18.6637C43.2112 18.6457 42.7867 18.498 42.5099 18.1837V18.1845ZM49.6109 8.85224C51.8977 8.85224 53.0594 7.83824 53.0594 5.84624C53.0594 3.85424 51.8969 2.84024 49.6109 2.84024H45.4049V8.83424L49.6102 8.85224H49.6109ZM73.8809 17.1697C73.8809 17.5575 73.7152 17.8897 73.4009 18.1845C73.0882 18.4425 72.7192 18.5895 72.2947 18.5895C72.0367 18.5895 71.7599 18.5167 71.5207 18.369C71.2807 18.2212 71.0782 17.9812 70.9484 17.6865L69.3809 14.2192H60.3074L58.7399 17.6865C58.5922 18 58.4077 18.2212 58.1677 18.369C57.9277 18.5167 57.6697 18.5902 57.3749 18.5902C56.9879 18.5902 56.6002 18.4425 56.2874 18.1845C55.9552 17.9265 55.8074 17.5755 55.8074 17.1697C55.8074 16.9485 55.8629 16.7092 55.9552 16.4872L63.1102 1.12499C63.2579 0.792736 63.4979 0.516736 63.8302 0.332236C64.1437 0.147736 64.4752 0.0734863 64.8442 0.0734863C65.2132 0.0734863 65.5447 0.165736 65.8582 0.332236C66.1724 0.516736 66.4117 0.774736 66.5782 1.12499L73.7519 16.488C73.8254 16.728 73.8809 16.9305 73.8809 17.1705V17.1697ZM61.4324 11.637H68.2747L64.8442 3.96449L61.4317 11.637H61.4324Z" fill="#4B4C4B"/>
<path fill-rule="evenodd" clip-rule="evenodd" d="M86.7907 0.111035C87.1784 0.111035 87.5287 0.258035 87.8422 0.571535C88.1557 0.885035 88.3034 1.21729 88.3034 1.65979C88.3034 1.99204 88.1744 2.34228 87.9157 2.65578L82.0327 9.83028V17.004C82.0327 17.5388 81.8849 17.9445 81.5714 18.258C81.2579 18.5715 80.8709 18.7005 80.3917 18.7005C79.8937 18.7005 79.4692 18.5535 79.1557 18.258C78.8422 17.9633 78.6944 17.5575 78.6944 17.004V9.83028L72.8482 2.63778C72.5902 2.32354 72.4612 1.99203 72.4612 1.64179C72.4612 1.23604 72.6082 0.867035 72.9224 0.553535C73.2359 0.240035 73.6049 0.0922852 73.9732 0.0922852C74.4157 0.0922852 74.7667 0.276785 75.0802 0.663785L80.3729 7.22928L85.6477 0.663785C85.9612 0.294785 86.3482 0.111035 86.7907 0.111035V0.111035Z" fill="#4B4C4B"/>
</g>
<defs>
<linearGradient id="paint0_linear" x1="95.1374" y1="15.6388" x2="103.056" y2="11.0729" gradientUnits="userSpaceOnUse">
<stop stop-color="#1FADC3"/>
<stop offset="0.7072" stop-color="#36B98F"/>
</linearGradient>
<linearGradient id="paint1_linear" x1="100.025" y1="11.3879" x2="100.84" y2="10.7076" gradientUnits="userSpaceOnUse">
<stop stop-color="#123F06" stop-opacity="0"/>
<stop offset="1" stop-color="#123F06"/>
</linearGradient>
<radialGradient id="paint2_radial" cx="0" cy="0" r="1" gradientUnits="userSpaceOnUse" gradientTransform="translate(98.6018 11.2434) scale(4.497 4.4965)">
<stop offset="0.4185" stop-color="#123F06" stop-opacity="0"/>
<stop offset="1" stop-color="#123F06"/>
</radialGradient>
<linearGradient id="paint3_linear" x1="95.4924" y1="3.36593" x2="102.63" y2="7.72948" gradientUnits="userSpaceOnUse">
<stop stop-color="#9FDB57"/>
<stop offset="1" stop-color="#71CA5E"/>
</linearGradient>
<linearGradient id="paint4_linear" x1="103.651" y1="15.6435" x2="111.569" y2="11.0776" gradientUnits="userSpaceOnUse">
<stop stop-color="#1FADC3"/>
<stop offset="0.7072" stop-color="#36B98F"/>
</linearGradient>
<linearGradient id="paint5_linear" x1="108.618" y1="11.3144" x2="109.433" y2="10.6341" gradientUnits="userSpaceOnUse">
<stop stop-color="#123F06" stop-opacity="0"/>
<stop offset="1" stop-color="#123F06"/>
</linearGradient>
<radialGradient id="paint6_radial" cx="0" cy="0" r="1" gradientUnits="userSpaceOnUse" gradientTransform="translate(107.111 11.2434) scale(4.49692 4.4965)">
<stop offset="0.4185" stop-color="#123F06" stop-opacity="0"/>
<stop offset="1" stop-color="#123F06"/>
</radialGradient>
<linearGradient id="paint7_linear" x1="103.997" y1="3.36927" x2="111.134" y2="7.73301" gradientUnits="userSpaceOnUse">
<stop stop-color="#9FDB57"/>
<stop offset="1" stop-color="#71CA5E"/>
</linearGradient>
<clipPath id="clip0">
<rect width="112.5" height="24" fill="white"/>
</clipPath>
</defs>
</svg>
