<svg width="43" height="24" viewBox="0 0 43 24" fill="none" xmlns="http://www.w3.org/2000/svg">
<rect opacity="0.2" x="0.5" y="0.5" width="42" height="23" rx="1.5" stroke="#26472D"/>
<path d="M25.2823 5.74512H17.7202V18.2527H25.2823V5.74512Z" fill="#FF5F00"/>
<path d="M18.4991 12C18.4982 10.7956 18.7678 9.60681 19.2875 8.52353C19.8073 7.44025 20.5635 6.49089 21.4991 5.74728C20.3404 4.82511 18.9488 4.25167 17.4835 4.09249C16.0181 3.93332 14.5381 4.19483 13.2126 4.84714C11.8871 5.49946 10.7696 6.51625 9.98773 7.78132C9.20588 9.04639 8.79126 10.5087 8.79126 12.0011C8.79126 13.4935 9.20588 14.9558 9.98773 16.2209C10.7696 17.4859 11.8871 18.5027 13.2126 19.155C14.5381 19.8074 16.0181 20.0689 17.4835 19.9097C18.9488 19.7505 20.3404 19.1771 21.4991 18.2549C20.5632 17.5111 19.8068 16.5614 19.287 15.4777C18.7673 14.394 18.4978 13.2047 18.4991 12V12Z" fill="#EB001B"/>
<path d="M33.4574 16.9292V16.6729H33.5665V16.6199H33.3069V16.6729H33.4094V16.9292H33.4574ZM33.9614 16.9292V16.6199H33.8829L33.7912 16.8408L33.6996 16.6199H33.6211V16.9292H33.6778V16.695L33.7629 16.8961H33.8218L33.9069 16.695V16.9292H33.9614Z" fill="#F79E1B"/>
<path d="M34.208 11.9999C34.208 13.4925 33.7933 14.9549 33.0113 16.22C32.2293 17.4851 31.1116 18.5019 29.7859 19.1541C28.4602 19.8063 26.9801 20.0676 25.5146 19.9082C24.0492 19.7488 22.6577 19.1751 21.499 18.2526C22.4342 17.5084 23.1903 16.5588 23.7101 15.4754C24.23 14.3921 24.5002 13.2033 24.5002 11.9988C24.5002 10.7944 24.23 9.60559 23.7101 8.52226C23.1903 7.43892 22.4342 6.48929 21.499 5.74503C22.6577 4.82257 24.0492 4.24885 25.5146 4.08944C26.9801 3.93004 28.4602 4.19138 29.7859 4.8436C31.1116 5.49582 32.2293 6.5126 33.0113 7.77771C33.7933 9.04282 34.208 10.5052 34.208 11.9977V11.9999Z" fill="#F79E1B"/>
</svg>
