<svg width="43" height="24" viewBox="0 0 43 24" fill="none" xmlns="http://www.w3.org/2000/svg">
<rect opacity="0.2" x="0.5" y="0.5" width="42" height="23" rx="1.5" stroke="#26472D"/>
<g clip-path="url(#clip0)">
<path d="M19.3698 17.8268H16.4187L18.2646 6.21045H21.2155L19.3698 17.8268Z" fill="#00579F"/>
<path d="M30.0679 6.49455C29.4858 6.25951 28.5626 6 27.421 6C24.5067 6 22.4544 7.58171 22.4418 9.84309C22.4176 11.5115 23.9112 12.4382 25.0282 12.9945C26.17 13.563 26.5581 13.934 26.5581 14.4407C26.5465 15.2189 25.6355 15.5777 24.7858 15.5777C23.6076 15.5777 22.9763 15.3927 22.0169 14.9598L21.6283 14.7742L21.2153 17.3818C21.9075 17.7027 23.1827 17.9875 24.5067 18C27.6032 18 29.6191 16.4428 29.643 14.0329C29.6548 12.7105 28.8661 11.6973 27.1658 10.8693C26.1337 10.3378 25.5016 9.97942 25.5016 9.43559C25.5137 8.9412 26.0362 8.43482 27.2014 8.43482C28.1608 8.41002 28.8657 8.64473 29.3997 8.87961L29.6666 9.00296L30.0679 6.49455V6.49455Z" fill="#00579F"/>
<path d="M33.9902 13.7115C34.2332 13.0442 35.1684 10.4614 35.1684 10.4614C35.1562 10.4862 35.411 9.78171 35.5567 9.34924L35.7629 10.3502C35.7629 10.3502 36.3218 13.1307 36.4432 13.7115C35.9819 13.7115 34.5731 13.7115 33.9902 13.7115ZM37.633 6.21045H35.3503C34.6464 6.21045 34.1116 6.42036 33.8078 7.17426L29.4243 17.8266H32.5208C32.5208 17.8266 33.0306 16.3929 33.1402 16.0841C33.4799 16.0841 36.4922 16.0841 36.9292 16.0841C37.0139 16.4919 37.2814 17.8266 37.2814 17.8266H40.0138L37.633 6.21045V6.21045Z" fill="#00579F"/>
<path d="M13.9538 6.21045L11.0637 14.1317L10.7479 12.5252C10.2135 10.6714 8.53778 8.65743 6.66772 7.656L9.31498 17.8144H12.4357L17.0744 6.21045H13.9538V6.21045Z" fill="#00579F"/>
<path d="M8.37991 6.21045H3.63183L3.58325 6.44516C7.28705 7.40914 9.74001 9.73276 10.7478 12.5256L9.71564 7.18691C9.54571 6.445 9.02349 6.23492 8.37991 6.21045Z" fill="#FAA61A"/>
</g>
<defs>
<clipPath id="clip0">
<rect width="36.4306" height="12" fill="white" transform="translate(3.58325 6)"/>
</clipPath>
</defs>
</svg>
